# xmcd
#
# Track frame offsets:
#	150
#	15408
#	27165
#	39902
#	56707
#	74000
#	87365
#	100557
#	111540
#	122963
#	136158
#	151417
#	161395
#	174251
#	187563
#	199470
#	213088
#	227179
#	236826
#	249120
#
# Disc length: 3470 seconds
#
# Revision: 1
# Processed by: cddbd v1.5.2PL0 Copyright (c) Steve Scherf et al.
# Submitted via: audiograbber 1.83.01
#
DISCID=030d8c14
DTITLE=D' Gartehöckler - Jetzt goht's urchig CD1
DYEAR=2004
DGENRE=Ländler
TTITLE0=Wenn's urchig goht
TTITLE1=Abgsägeti Hose
TTITLE2=Ä Schnupf vom Sedel-Hans
TTITLE3=Clay Regazzoni-Marsch
TTITLE4=Der Legionär
TTITLE5=Öppis urchigs vom Stalde-Franz
TTITLE6=Im schönen Adelboden
TTITLE7=Illgauer Gäueler
TTITLE8=Das Edelweiss
TTITLE9=För's Loos-Elisi
TTITLE10=Gruss an Herzogenbuchsee
TTITLE11=Mit em Ernst uf de Pintechehr
TTITLE12=Die Petra von der Lenk
TTITLE13=Jung and Stark
TTITLE14=En schöne Ländler
TTITLE15=Dr Wässerli-Cowboy
TTITLE16=Im hohle Chrüz
TTITLE17=Es ist so schön ein Musikant zu sein
TTITLE18=S Schneehäsli
TTITLE19=Uf de Karin sim Örgeli
EXTD=
EXTT0=
EXTT1=
EXTT2=
EXTT3=
EXTT4=
EXTT5=
EXTT6=
EXTT7=
EXTT8=
EXTT9=
EXTT10=
EXTT11=
EXTT12=
EXTT13=
EXTT14=
EXTT15=
EXTT16=
EXTT17=
EXTT18=
EXTT19=
PLAYORDER=
